<svg width="14" height="9" viewBox="0 0 14 9" fill="none" xmlns="http://www.w3.org/2000/svg">
<path d="M6.97399 8.00546C6.79934 8.00647 6.62622 7.97284 6.46454 7.90648C6.30286 7.84013 6.1558 7.74236 6.03181 7.61879L0.723759 2.28546C0.600031 2.16114 0.501884 2.01355 0.434923 1.85112C0.367961 1.68869 0.333496 1.5146 0.333496 1.33879C0.333496 1.16298 0.367961 0.988885 0.434923 0.826456C0.501884 0.664026 0.600031 0.51644 0.723759 0.392122C0.847488 0.267804 0.994375 0.169189 1.15603 0.101908C1.31769 0.0346279 1.49096 -2.6198e-09 1.66594 0C1.84092 2.61981e-09 2.01418 0.0346279 2.17584 0.101908C2.3375 0.169189 2.48439 0.267804 2.60812 0.392122L6.97399 4.80546L11.3531 0.565455C11.4752 0.429069 11.624 0.319457 11.7901 0.243476C11.9563 0.167494 12.1363 0.126778 12.3188 0.123872C12.5013 0.120966 12.6825 0.155933 12.851 0.226588C13.0194 0.297243 13.1716 0.402065 13.2979 0.534498C13.4242 0.66693 13.522 0.824125 13.5851 0.99625C13.6482 1.16838 13.6752 1.35173 13.6646 1.53484C13.6539 1.71796 13.6058 1.8969 13.5232 2.06046C13.4405 2.22403 13.3252 2.36871 13.1844 2.48545L7.87635 7.63212C7.63368 7.86721 7.31105 8.00069 6.97399 8.00546Z" fill="#7E83A3"/>
</svg>
