<svg width="18" height="16" viewBox="0 0 18 16" fill="none" xmlns="http://www.w3.org/2000/svg">
<path d="M17.0273 3.53929C16.7655 2.93311 16.3881 2.3838 15.916 1.9221C15.4436 1.45903 14.8866 1.09103 14.2754 0.838118C13.6416 0.574823 12.9617 0.440054 12.2754 0.441634C11.3125 0.441634 10.373 0.705305 9.55664 1.20335C9.36133 1.32249 9.17578 1.45335 9 1.59593C8.82422 1.45335 8.63867 1.32249 8.44336 1.20335C7.62695 0.705305 6.6875 0.441634 5.72461 0.441634C5.03125 0.441634 4.35938 0.574446 3.72461 0.838118C3.11133 1.09202 2.55859 1.45726 2.08398 1.9221C1.61132 2.38328 1.23375 2.93272 0.972656 3.53929C0.701172 4.17015 0.5625 4.84007 0.5625 5.52952C0.5625 6.17991 0.695313 6.85765 0.958984 7.5471C1.17969 8.12327 1.49609 8.72093 1.90039 9.32445C2.54102 10.2795 3.42188 11.2756 4.51562 12.2854C6.32812 13.9592 8.12305 15.1155 8.19922 15.1623L8.66211 15.4592C8.86719 15.5901 9.13086 15.5901 9.33594 15.4592L9.79883 15.1623C9.875 15.1135 11.668 13.9592 13.4824 12.2854C14.5762 11.2756 15.457 10.2795 16.0977 9.32445C16.502 8.72093 16.8203 8.12327 17.0391 7.5471C17.3027 6.85765 17.4355 6.17991 17.4355 5.52952C17.4375 4.84007 17.2988 4.17015 17.0273 3.53929ZM9 13.9143C9 13.9143 2.04688 9.45921 2.04688 5.52952C2.04688 3.53929 3.69336 1.92601 5.72461 1.92601C7.15234 1.92601 8.39062 2.72288 9 3.88695C9.60938 2.72288 10.8477 1.92601 12.2754 1.92601C14.3066 1.92601 15.9531 3.53929 15.9531 5.52952C15.9531 9.45921 9 13.9143 9 13.9143Z" fill="#323752"/>
</svg>
