<svg width="18" height="18" viewBox="0 0 18 18" fill="none" xmlns="http://www.w3.org/2000/svg">
<path d="M15.6875 14.6426C15.6914 14.6367 15.6973 14.6309 15.7012 14.625C16.9805 13.1035 17.75 11.1426 17.75 9C17.75 6.85742 16.9805 4.89648 15.7031 3.375C15.6992 3.36914 15.6934 3.36523 15.6895 3.35938C15.668 3.33398 15.6484 3.31055 15.627 3.28711C15.6191 3.27734 15.6113 3.26953 15.6035 3.25977L15.5234 3.16797L15.5215 3.16602C15.4922 3.13281 15.4609 3.09961 15.4316 3.06641L15.4297 3.06445C15.3672 2.99805 15.3047 2.93164 15.2402 2.86719L15.2383 2.86523L15.1445 2.77148L15.1387 2.76562C15.1094 2.73633 15.0801 2.70898 15.0508 2.68164C15.041 2.67188 15.0312 2.66211 15.0195 2.65234C15 2.63281 14.9805 2.61523 14.9609 2.59766C14.9551 2.5918 14.9473 2.58594 14.9414 2.57812C13.3828 1.13281 11.2949 0.25 9 0.25C6.70508 0.25 4.61719 1.13281 3.05664 2.57812C3.05078 2.58398 3.04297 2.58984 3.03711 2.59766C3.01758 2.61523 2.99805 2.63477 2.97852 2.6543C2.96875 2.66406 2.95898 2.67383 2.94727 2.68359C2.91797 2.71094 2.88867 2.74023 2.85938 2.76758L2.85352 2.77344L2.75977 2.86719L2.75781 2.86914C2.69336 2.93359 2.63086 3 2.56836 3.06641L2.56641 3.06836C2.53516 3.10156 2.50586 3.13477 2.47656 3.16797L2.47461 3.16992C2.44727 3.19922 2.41992 3.23047 2.39453 3.26172C2.38672 3.27148 2.37891 3.2793 2.37109 3.28906C2.34961 3.3125 2.33008 3.33789 2.30859 3.36133C2.30469 3.36719 2.29883 3.37109 2.29492 3.37695C1.01953 4.89648 0.25 6.85742 0.25 9C0.25 11.1426 1.01953 13.1035 2.29688 14.625C2.30078 14.6309 2.30664 14.6367 2.31055 14.6426L2.37109 14.7148C2.37891 14.7246 2.38672 14.7324 2.39453 14.7422L2.47461 14.834C2.47461 14.8359 2.47656 14.8359 2.47656 14.8379C2.50586 14.8711 2.53516 14.9043 2.56641 14.9355L2.56836 14.9375C2.63086 15.0039 2.69336 15.0703 2.75586 15.1348L2.75781 15.1367C2.78906 15.168 2.81836 15.1992 2.84961 15.2285L2.85547 15.2344C2.91992 15.2988 2.98633 15.3613 3.05273 15.4219C4.61719 16.8672 6.70508 17.75 9 17.75C11.2949 17.75 13.3828 16.8672 14.9434 15.4219C15.0099 15.3609 15.075 15.2984 15.1387 15.2344L15.1445 15.2285C15.1758 15.1973 15.207 15.168 15.2363 15.1367L15.2383 15.1348C15.3027 15.0703 15.3652 15.0039 15.4258 14.9375L15.4277 14.9355C15.457 14.9023 15.4883 14.8711 15.5176 14.8379C15.5176 14.8359 15.5195 14.8359 15.5195 14.834C15.5469 14.8047 15.5742 14.7734 15.5996 14.7422C15.6074 14.7324 15.6152 14.7246 15.623 14.7148C15.6451 14.6913 15.6666 14.6672 15.6875 14.6426ZM15.7676 11.8574C15.498 12.4941 15.1426 13.084 14.709 13.6191C14.2207 13.1971 13.6868 12.8309 13.1172 12.5273C13.3438 11.6113 13.4844 10.6055 13.5215 9.54688H16.3242C16.2656 10.3457 16.0781 11.1211 15.7676 11.8574ZM16.3242 8.45312H13.5215C13.4844 7.39453 13.3438 6.38867 13.1172 5.47266C13.6895 5.16797 14.2227 4.80078 14.709 4.38086C15.6515 5.54097 16.2153 6.96238 16.3242 8.45312ZM11.8574 2.23242C12.6328 2.56055 13.3379 3.01367 13.959 3.58398C13.5982 3.8912 13.2098 4.16449 12.7988 4.40039C12.4922 3.52148 12.0996 2.75781 11.6426 2.14648C11.7148 2.17383 11.7871 2.20312 11.8574 2.23242ZM10.0879 15.916C9.9082 16.0566 9.72852 16.1641 9.54688 16.2363V12.6133C10.3219 12.6673 11.084 12.8399 11.8066 13.125C11.6445 13.6055 11.457 14.0488 11.2402 14.4492C10.9004 15.082 10.502 15.5879 10.0879 15.916ZM11.2402 3.55078C11.4551 3.95312 11.6445 4.39648 11.8066 4.875C11.084 5.16007 10.3219 5.33265 9.54688 5.38672V1.76563C9.72656 1.83789 9.9082 1.94336 10.0879 2.08594C10.502 2.41211 10.9004 2.91797 11.2402 3.55078ZM9.54688 11.5176V9.54688H12.4277C12.3965 10.4102 12.2891 11.248 12.1094 12.043L12.1035 12.0664C11.2839 11.7556 10.4219 11.5705 9.54688 11.5176ZM9.54688 8.45312V6.48242C10.4414 6.42773 11.3008 6.23828 12.1035 5.93359L12.1094 5.95703C12.2891 6.75195 12.3965 7.58789 12.4277 8.45312H9.54688ZM8.45312 9.54688V11.5176C7.55859 11.5723 6.69922 11.7617 5.89648 12.0664L5.89062 12.043C5.71094 11.248 5.60352 10.4121 5.57227 9.54688H8.45312ZM5.57227 8.45312C5.60352 7.58984 5.71094 6.75195 5.89062 5.95703L5.89648 5.93359C6.69922 6.23828 7.55664 6.42773 8.45312 6.48242V8.45312H5.57227ZM8.45312 12.6133V16.2344C8.27344 16.1621 8.0918 16.0566 7.91211 15.9141C7.49805 15.5879 7.09766 15.0801 6.75781 14.4473C6.54297 14.0449 6.35352 13.6016 6.19141 13.123C6.91797 12.8379 7.67383 12.668 8.45312 12.6133ZM8.45312 5.38672C7.67814 5.33265 6.91603 5.16007 6.19336 4.875C6.35547 4.39453 6.54297 3.95117 6.75977 3.55078C7.09961 2.91797 7.49805 2.41016 7.91406 2.08398C8.09375 1.94336 8.27344 1.83594 8.45508 1.76367V5.38672H8.45312ZM6.14258 2.23242C6.21484 2.20312 6.28516 2.17383 6.35742 2.14648C5.90039 2.75781 5.50781 3.52148 5.20117 4.40039C4.79102 4.16602 4.40234 3.89258 4.04102 3.58398C4.66211 3.01367 5.36719 2.56055 6.14258 2.23242ZM2.23242 6.14258C2.50195 5.50586 2.85742 4.91602 3.29102 4.38086C3.77734 4.80078 4.31055 5.16797 4.88281 5.47266C4.65625 6.38867 4.51562 7.39453 4.47852 8.45312H1.67578C1.73438 7.6543 1.92188 6.87891 2.23242 6.14258ZM1.67578 9.54688H4.47852C4.51562 10.6055 4.65625 11.6113 4.88281 12.5273C4.31324 12.8309 3.77934 13.1971 3.29102 13.6191C2.3485 12.459 1.7847 11.0376 1.67578 9.54688ZM6.14258 15.7676C5.36719 15.4395 4.66211 14.9863 4.04102 14.416C4.40234 14.1074 4.79102 13.8359 5.20117 13.5996C5.50781 14.4785 5.90039 15.2422 6.35742 15.8535C6.28516 15.8262 6.21289 15.7969 6.14258 15.7676ZM11.8574 15.7676C11.7852 15.7969 11.7148 15.8262 11.6426 15.8535C12.0996 15.2422 12.4922 14.4785 12.7988 13.5996C13.209 13.834 13.5977 14.1074 13.959 14.416C13.3413 14.984 12.6304 15.4412 11.8574 15.7676Z" fill="#323752"/>
</svg>
