<svg width="17" height="16" viewBox="0 0 17 16" fill="none" xmlns="http://www.w3.org/2000/svg">
<path d="M16.2656 14.6895L11.1934 9.61719C11.9805 8.59961 12.4062 7.35547 12.4062 6.04688C12.4062 4.48047 11.7949 3.01172 10.6895 1.9043C9.58398 0.796875 8.11133 0.1875 6.54688 0.1875C4.98242 0.1875 3.50977 0.798828 2.4043 1.9043C1.29687 3.00977 0.6875 4.48047 0.6875 6.04688C0.6875 7.61133 1.29883 9.08398 2.4043 10.1895C3.50977 11.2969 4.98047 11.9062 6.54688 11.9062C7.85547 11.9062 9.09766 11.4805 10.1152 10.6953L15.1875 15.7656C15.2024 15.7805 15.22 15.7923 15.2395 15.8004C15.2589 15.8084 15.2797 15.8126 15.3008 15.8126C15.3218 15.8126 15.3427 15.8084 15.3621 15.8004C15.3815 15.7923 15.3992 15.7805 15.4141 15.7656L16.2656 14.916C16.2805 14.9011 16.2923 14.8835 16.3004 14.864C16.3084 14.8446 16.3126 14.8238 16.3126 14.8027C16.3126 14.7817 16.3084 14.7609 16.3004 14.7414C16.2923 14.722 16.2805 14.7043 16.2656 14.6895ZM9.64062 9.14062C8.8125 9.9668 7.71484 10.4219 6.54688 10.4219C5.37891 10.4219 4.28125 9.9668 3.45312 9.14062C2.62695 8.3125 2.17188 7.21484 2.17188 6.04688C2.17188 4.87891 2.62695 3.7793 3.45312 2.95312C4.28125 2.12695 5.37891 1.67188 6.54688 1.67188C7.71484 1.67188 8.81445 2.125 9.64062 2.95312C10.4668 3.78125 10.9219 4.87891 10.9219 6.04688C10.9219 7.21484 10.4668 8.31445 9.64062 9.14062Z" fill="white"/>
</svg>
