<svg width="356" height="196" viewBox="0 0 356 196" fill="none" xmlns="http://www.w3.org/2000/svg"><path fill="#1A9F28" d="M0 0h356v196H0z"/><path d="M244.592 87.725v20.22h4.361v-8.26h9.302v8.26h4.362v-20.22h-4.362v8.29h-9.302v-8.29h-4.361zm27.849 12.065h2.715l6.697 8.157h5.638l-8.926-10.459 7.8-9.763h-5.015l-6.5 8.667h-2.409v-8.667h-4.365v20.222h4.365V99.79zm-35.349 8.155h4.593l-8.518-20.22h-4.45l-8.724 20.22h4.42l1.754-4.072h9.273l1.652 4.072zm-9.621-7.445l3.381-8.118 3.176 8.118h-6.557zm-16.602-4.893h-5.31v-4.515h11.411l.01-3.367h-15.785v20.22h9.11c5.11 0 8.042-2.315 8.042-6.352 0-3.86-2.657-5.986-7.478-5.986zm-.76 8.971h-4.55v-5.605h4.55c2.77 0 4.06.939 4.06 2.804 0 1.905-1.367 2.801-4.06 2.801zm-43.634-13.486l4.568-3.367h-15.288v20.222h15.288v-3.369h-10.925v-5.176h9.319v-3.367h-9.319v-4.943h6.357zm-22.26 4.515h-5.31v-4.515h8.475l4.569-3.367h-17.407v20.222h9.11c5.11 0 8.04-2.317 8.04-6.354 0-3.86-2.655-5.986-7.477-5.986zm-.76 8.971h-4.55v-5.605h4.55c2.769 0 4.059.939 4.059 2.804 0 1.905-1.365 2.801-4.059 2.801zm39.975-16.853h-8.324v20.22h4.362v-5.727h3.962c5.311 0 8.611-2.793 8.611-7.256 0-4.464-3.3-7.237-8.611-7.237zm-.097 11.127h-3.865v-7.76h3.865c2.797 0 4.333 1.378 4.333 3.88 0 2.501-1.538 3.88-4.333 3.88zm-56.281 4.716a7.816 7.816 0 0 1-3.767.944c-3.933 0-6.788-2.809-6.788-6.677 0-3.868 2.855-6.668 6.788-6.668a6.644 6.644 0 0 1 3.968 1.243l3.13-2.307-.206-.181c-1.834-1.605-4.269-2.454-7.06-2.454-3.029 0-5.777 1.02-7.739 2.875-1.961 1.855-3.06 4.489-3.06 7.389 0 2.9 1.084 5.576 3.05 7.5 1.967 1.923 4.714 2.99 7.72 2.99 3.145 0 5.892-1.097 7.755-3.092l-2.825-2.082-.966.52zm-25.114-5.831c.001-1.001-.089-2-.266-2.985l-3.589 2.643v.333a12.836 12.836 0 0 1-9.737 12.472A12.833 12.833 0 1 1 92.5 87.157l3.242-2.39a16.666 16.666 0 1 0 6.2 12.97h-.004z" fill="#fff"/><path d="M98.46 87.547a16.754 16.754 0 0 1 2 3.313l-15.188 11.193-6.345-3.978V93.29l6.345 3.977 13.188-9.72z" fill="#fff"/></svg>