<svg width="356" height="196" viewBox="0 0 356 196" fill="none" xmlns="http://www.w3.org/2000/svg"><path fill="#353548" d="M0 0h356v196H0z"/><g clip-path="url(#a)"><path d="M229.059 90.752v17.185h-6.137V95.882h-5.908v12.055h-6.137V90.751h18.182z" fill="#fff"/><path fill-rule="evenodd" clip-rule="evenodd" d="M198.274 108.552c5.494 0 9.573-3.369 9.573-8.475 0-4.942-3.01-8.15-8.04-8.15-2.321 0-4.237.816-5.679 2.226.344-2.914 2.808-5.041 5.522-5.041.626 0 5.34-.01 5.34-.01L207.656 84s-5.919.135-8.67.135c-6.287.11-10.533 5.823-10.533 12.764 0 8.085 4.142 11.653 9.821 11.653zm.034-12.107c2.039 0 3.453 1.34 3.453 3.632 0 2.062-1.256 3.761-3.453 3.766-2.102 0-3.516-1.574-3.516-3.731 0-2.292 1.414-3.667 3.516-3.667z" fill="#fff"/><path d="M183.458 102.184s-1.449.835-3.613.993c-2.489.074-4.706-1.498-4.706-4.29 0-2.724 1.957-4.285 4.643-4.285 1.647 0 3.826 1.142 3.826 1.142s1.595-2.926 2.421-4.39c-1.513-1.146-3.527-1.774-5.87-1.774-5.914 0-10.494 3.855-10.494 9.272 0 5.487 4.305 9.253 10.494 9.139 1.729-.064 4.116-.672 5.57-1.606l-2.271-4.201z" fill="#fff"/><path d="M108 78.3l8.512 15.216v9.281l-8.502 15.186L108 78.3z" fill="#3043F3"/><path d="M140.685 87.98l7.976-4.89 16.324-.015-24.3 14.887v-9.983z" fill="#D90751"/><path d="M140.64 78.21l.045 20.146-8.533-5.243V63l8.488 15.21z" fill="#FAB718"/><path d="M164.986 83.075l-16.325.015-8.021-4.88L132.152 63l32.834 20.075z" fill="#ED6F26"/><path d="M140.685 118.067v-9.774l-8.533-5.143.005 30.143 8.528-15.226z" fill="#63B22F"/><path d="M148.641 113.223l-32.129-19.707L108 78.3l56.951 34.903-16.31.02z" fill="#1487C9"/><path d="M132.157 133.293l8.527-15.226 7.956-4.844 16.31-.02-32.793 20.09z" fill="#017F36"/><path d="M108.01 117.983l24.212-14.832-8.14-4.995-7.57 4.641-8.502 15.186z" fill="#984995"/></g><defs><clipPath id="a"><path fill="#fff" transform="translate(108 63)" d="M0 0h140v70.293H0z"/></clipPath></defs></svg>