<svg width="356" height="196" viewBox="0 0 356 196" fill="none" xmlns="http://www.w3.org/2000/svg"><path fill="#FCD715" d="M0 0h356v196H0z"/><g clip-path="url(#a)"><path d="M124.009 95.97l.999-3.18-3.307.103c-.279 0-2.31-.057-4.28-1.477.146.014.293.034.443.034 2.028 0 3.99-1.214 4.776-2.949l1.424-3.134c-1.784.023-3.414-.2-3.414-.2-.015-.003-1.3-.166-2.786-1.675-1.066-1.082-2.385-1.655-3.814-1.655a5.51 5.51 0 0 0-1.665.264 5.83 5.83 0 0 0 .187-.78c.455-2.933-1.446-5.172-1.446-5.169l-2.486-3.06-1.541 3.595c-.006.012-.395.853-1.092 1.266-.21-1.057-.726-2.245-1.829-3.381-2.08-2.142-4.612-2.46-5.938-2.46-.613 0-1.051.067-1.158.084l-3.001.587c.172-.667.541-1.827 1.215-2.872l1.657-2.564-4.169.472-1.328-2.803-2.57 1.317L86.51 64l-2.371 2.333-2.578-1.317-1.325 2.803-4.166-.472 1.66 2.564c.673 1.045 1.042 2.202 1.212 2.869l-2.863-.561-.098-.017a7.582 7.582 0 0 0-1.196-.09c-1.325 0-3.857.321-5.931 2.46-1.106 1.133-1.622 2.324-1.835 3.38-.692-.406-1.078-1.236-1.078-1.236L64.397 73.1l-2.526 3.08c-.309.398-1.832 2.503-1.418 5.148.044.263.113.52.188.776a5.476 5.476 0 0 0-1.662-.264c-1.43 0-2.749.573-3.817 1.655-1.481 1.503-2.76 1.672-2.749 1.672 0 0-1.35.24-3.442.203l1.414 3.134c.787 1.738 2.751 2.95 4.777 2.95.152 0 .3-.021.449-.035-1.965 1.42-3.996 1.477-4.24 1.48L48 92.789l1.02 3.178c.513 1.638 2.227 4.352 5.51 4.644-.357 1.488-1.149 3.154-2.889 3.873l-2.509 1.027 1.369 2.368c.772 1.277 2.584 2.771 5.165 2.771a8.051 8.051 0 0 0 1.616-.166c.132.584.3 1.168.495 1.746.77 2.273.107 3.859.098 3.876l-1.239 2.579 2.766.725c.035.011.87.237 1.916.237a5.922 5.922 0 0 0 2.281-.443 8.304 8.304 0 0 0 1.3 1.74c1.771 1.806 4.28 2.722 7.46 2.722h.012l2.27-.028-4.69 1.935 3.561 1.709c1.293.627 2.829 1.368 4.39 1.935l-.443 1.208 1.227.556c.11.048 2.469 1.099 6.392 1.322 0 0 .948.043 1.47.043.52 0 1.457-.046 1.457-.046 3.898-.229 6.24-1.268 6.35-1.319l1.23-.559-.45-1.21c1.608-.584 3.197-1.355 4.436-1.956l3.495-1.686-4.676-1.938 2.279.029c3.183 0 5.695-.916 7.464-2.725.504-.519.939-1.1 1.299-1.738a5.87 5.87 0 0 0 2.282.444c1.028 0 1.872-.226 1.895-.232l2.777-.73-1.21-2.531c-.029-.066-.691-1.649.078-3.925.196-.581.36-1.165.493-1.746a7.945 7.945 0 0 0 1.627.166 6.035 6.035 0 0 0 5.168-2.797l1.354-2.341-2.509-1.025c-1.743-.719-2.532-2.388-2.886-3.873 3.238-.275 4.978-2.989 5.508-4.638zM79.161 73.876l-.034.009.028-.037.006.028z" fill="#fff"/><path d="M86.513 73.736c-2.656.003-4.646.867-5.081 1.884l5.081 1.992 5.082-1.992c-.432-1.017-2.423-1.881-5.082-1.884zm.051 52.744h-.1c-1.61.012-3.826-.317-4.895-.626l-1.285 3.455c.847.3 3.716.873 6.231.873 2.51 0 5.382-.575 6.226-.873l-1.282-3.455c-1.072.311-3.284.638-4.895.626zm9.724-3.435c-.957.539-3.091 1.346-4.333 1.721l1.043 2.854c1.921-.521 3.506-1.131 4.817-1.784l-2.164-.715.637-2.076zm-19.546 0l.64 2.076-2.167.715c1.308.653 2.9 1.263 4.813 1.784l1.043-2.854c-1.236-.375-3.373-1.185-4.33-1.721zm9.771-52.613c2.002 0 3.967.475 5.477 1.312.138-.462.33-1.02.593-1.604l-.57.069-.6.063-.253-.541-.763-1.603-1.392.721-.541.275-.433-.423-1.512-1.49-1.51 1.49-.432.423-.541-.275-1.4-.721-.755 1.603-.26.541-.598-.063-.57-.069c.261.587.451 1.142.593 1.604 1.512-.837 3.47-1.312 5.467-1.312zm30.568 18.528c.259.088.524.128.786.128 1.132 0 2.227-.727 2.605-1.56 0 0-2.077-.126-4.31-2.379-.711-.73-1.463-.947-2.109-.947-1.002 0-1.754.527-1.754.527 2.696 1.425 3.246 3.715 4.782 4.23zm-61.921.128c.262 0 .527-.04.78-.128 1.542-.516 2.095-2.806 4.791-4.231 0 0-.755-.527-1.751-.527-.648 0-1.4.217-2.115.947-2.23 2.253-4.306 2.38-4.306 2.38.371.832 1.469 1.56 2.601 1.56z" fill="#fff"/><path d="M117.813 98.266c.046.003.086.003.135.003 2.826 0 3.785-3.009 3.785-3.009h-.054c-.519 0-4.722-.12-7.692-3.873-1.956-2.468-3.558-4.638-6.724-5.49l-.311-.055-.069-.315c-.087-.48.245-.93.997-1.417 4.367-2.842 1.403-6.467 1.403-6.467s-1.248 2.9-4.039 2.9l-.208-.003c-.316-.017-.622-.028-.93-.094l-.516-.1s.795-2.15-1.123-4.125c-1.447-1.492-3.207-1.744-4.224-1.744-.512 0-.838.066-.838.066.965 1.254 1.662 3.332.548 4.615-.963 1.102-3.313 1.156-3.313 2.8 0 .695.654 1.508 1.829 2.238 3.535 2.213 7.043 5.147 8.501 9.08 1.824 4.907-.23 8.162-3.163 10.028 0 0 .919.842 2.253.948.271.026.536.037.783.037 2.815 0 4.27-1.311 4.27-1.311s-.24 1.812-1.706 3.495c-1.351 1.555-3.125 2.468-5.831 2.508 0 0-.086 1.248 1.113 2.327.766.682 2.537.905 2.537.905s-3.315.667-3.681 5.533c-.199 2.637-.876 3.553-.876 3.553h.061c7.694 0 7.495-6.558 7.495-6.558s.536 1.94 2.682 2.447c.259.069.536.095.801.095.692 0 1.291-.161 1.291-.161s-1.124-2.356-.009-5.651c.925-2.733.775-4.76.775-4.76s1.037 1.557 3.607 1.571h.026c2.14 0 3.073-1.611 3.073-1.611-5.13-2.116-4.623-8.946-4.623-8.946s.665.492 1.965.541zm-1.545 7.134c-2.085-1.022-3.405-3.736-3.724-4.715-.346 5.382-2.991 9.117-6.082 12.713-1.604 1.863-2.163 3.676-2.163 3.676s.308-2.053 1.696-3.725c2.884-3.444 5.624-7.729 5.828-12.684.142-3.458-.754-6.264-2.151-8.574.78 2.408.671 5.356-1.983 8.107 0 0 5.281-6.29-2.102-12.736-2.956-2.453-6.188-3.967-7.853-5.04 6.015 1.949 8.95-.198 8.95-.198-1.921 1.654-4.407 1.626-5.949 1.388.418.203.853.415 1.323.664 5.07 2.737 9.627 7.24 10.405 13.478v-.05c1.181 6.124 3.805 7.696 3.805 7.696zm-48.469 6.813s1.771-.221 2.538-.905c1.195-1.079 1.112-2.327 1.112-2.327-2.708-.037-4.48-.953-5.84-2.505-1.454-1.683-1.696-3.495-1.696-3.495s1.454 1.311 4.266 1.311c.254 0 .516-.012.786-.037 1.334-.106 2.256-.948 2.256-.948-2.933-1.866-4.99-5.124-3.169-10.03 1.46-3.931 4.967-6.868 8.502-9.081 1.175-.73 1.829-1.54 1.829-2.239 0-1.643-2.348-1.697-3.31-2.8-1.115-1.282-.415-3.363.547-4.614 0 0-.32-.066-.836-.066-1.013 0-2.774.252-4.22 1.744-1.924 1.975-1.126 4.125-1.126 4.125l-.516.1c-.308.066-.616.077-.93.094-.072 0-.136.003-.205.003-2.797 0-4.039-2.897-4.039-2.897s-2.964 3.624 1.4 6.467c.752.487 1.08.936.995 1.417l-.07.315-.317.054c-3.16.853-4.764 3.023-6.72 5.49-2.965 3.748-7.162 3.871-7.686 3.871h-.058s.96 3.009 3.785 3.009c.047 0 .087 0 .136-.003 1.299-.046 1.967-.541 1.967-.541s.502 6.827-4.623 8.946c0 0 .933 1.611 3.073 1.611h.026c2.573-.014 3.607-1.571 3.607-1.571s-.15 2.027.772 4.76c1.115 3.295-.003 5.651-.003 5.651s.6.161 1.288.161c.268 0 .542-.026.798-.095 2.143-.507 2.682-2.447 2.682-2.447s-.196 6.558 7.499 6.558h.054s-.674-.916-.87-3.553c-.368-4.866-3.684-5.533-3.684-5.533zm-1.236 1.185c-3.091-3.596-5.733-7.331-6.081-12.713-.32.976-1.634 3.693-3.72 4.715 0 0 2.622-1.572 3.8-7.695v.049c.781-6.235 5.336-10.741 10.408-13.478.464-.252.905-.464 1.32-.664-1.541.238-4.027.266-5.949-1.388 0 0 2.936 2.147 8.948.197-1.665 1.074-4.895 2.588-7.85 5.041-7.387 6.447-2.103 12.736-2.103 12.736-2.656-2.754-2.763-5.7-1.982-8.107-1.4 2.313-2.293 5.116-2.15 8.574.202 4.955 2.942 9.24 5.82 12.684 1.391 1.669 1.705 3.725 1.705 3.725s-.564-1.813-2.166-3.676zm14.261-25.162a7.76 7.76 0 0 1 .78.99c.024.031.047.069.073.106.13.195.25.395.371.601 1.11 1.904 2.887 3.04 4.463 3.043 1.578-.003 3.35-1.14 4.465-3.043.124-.212.248-.418.377-.61.02-.028.04-.054.058-.083a8.122 8.122 0 0 1 .798-1.007c.023-.023.04-.043.06-.06a4.606 4.606 0 0 1 2.12-1.257l-.391-.226h-.023l-1.562-.902-1.604-.913-4.287 2.319-.011-.01-.009.01-4.29-2.32-1.601.911-1.564.902h-.018l-.397.226a4.608 4.608 0 0 1 2.123 1.25c.026.024.043.05.07.073zm3.952-.187h3.627v1.237c-.426-.518-1.256-.412-1.256-.412v1.783s.032.876.34 1.257h-1.794c.314-.378.342-1.257.342-1.257v-1.783s-.826-.106-1.259.412V88.05z" fill="#fff"/><path d="M86.142 85.65v-7.24l-4.638-1.563 1.224 7.017 3.414 1.786zm-.997-5.462v1.162l-.224-.103c-.012-.008-.34-.083-.917-.535-.95-.733-.967-1.409-.967-1.409l2.108.885zm5.157 3.676l1.219-7.017-4.635 1.563v7.24l3.416-1.786zm-2.42-3.676l2.11-.882s-.018.676-.972 1.409c-.573.452-.904.526-.916.535l-.225.103v-1.165h.004zm-8.299 22.246c.452.163 1 .198 1.279.198.012-.035.026-.078.04-.129a2.11 2.11 0 0 0 .067-.255c.077-.401.106-.856.112-1.148-.19-.117-.458-.326-.608-.638-.173-.361-.418-.527-.778-.527-.466 0-.968.278-1.181.41-.17.998.57 1.906 1.069 2.089zm10.257-3.842c-.861.93-2.547 2.551-2.63 2.634l-.101.103-5.326-.083c-.003.524-.09.97-.173 1.297l-.044.168 6.338 1.131c.66-.458 2.475-1.775 3.178-2.29-.513-.744-.562-1.626-.447-2.247a3.221 3.221 0 0 1-.795-.713z" fill="#fff"/><path d="M90.563 92.226c-1.227 1.211-2.405 1.658-3.457 1.76-.19.02-.383.032-.579.032h-.026c-.195 0-.391-.011-.582-.031a4.635 4.635 0 0 1-.57-.089c-.069.272-.156.842.092 1.38.222.49.674.853 1.334 1.093l.222.086.003.238c0 .071.052 1.612 1.743 2.038.276-.283.527-.538.711-.75-.345-.807-.164-1.632.337-2.035-.023.085-.242 2.107 1.389 2.856l.268.126-.081.284c-.026.086-.57 2.041 1.403 2.768l.349.132-.156.338c-.034.074-.81 1.849 1.014 2.857h3.955v-3.121c-1.405-.172-2.002-1.294-2.154-2.09-.654-.111-1.161-.392-1.507-.85-.83-1.085-.115-2.078-.107-2.133-.003.01 0 1.068.657 1.721.326.315.712.558 1.296.613l.288.026.026.291c.006.063.165 1.495 1.504 1.721l-.003-6.372c0-.988.291-1.981.64-2.897h-8.009v.008zM79.92 95.145l-.106 4.06.463.068 1.135-3.893-.576-1.197-.916.962zm12.514 18.617c.034 0 .075.006.112.014.706.201.884 2.731 2.123 2.957.121.026.234.032.332.032.357 0 .57-.152.8-.421 0 0-.622-.973-1.089-1.629-.619-.859-1.1-1.898-2.252-1.898-.026 0-.06 0-.09.003-.38.02-.613.203-.613.203-.467-.292-.902-.392-1.297-.392-.723 0-1.284.329-1.564.329h-.011l-2.576-.252c-.403-.037-.72-.44-.835-.598a1.054 1.054 0 0 1-.043-.069c0-.068 0-.14-.006-.203-.087-2.092-1.717-2.989-2.296-3.003 0 0 .069-.398-.09-.549l-.567.684-1.864-.931 1.328 1.543-1.126 1.257c-.141.143-.124.338-.066.418l.486.427.617-.373c.032-.022.086-.028.156-.028.17 0 .426.043.656.043.25 0 .47-.055.496-.29-.078.776-.801 2.125-.326 3.184l.352.799-2.276-.327-1.066 1.789c-.328.596-.38 1.24-.063 1.589l.397.495s.56-.589.686-.976l-.182-.197c-.152-.166-.144-.315-.051-.495l.668-1.103 2.688.63.14-.24c.182-.301.444-.393.733-.393.117 0 .239.015.365.035.499.097 1.32.229 2.14.229.902 0 1.795-.16 2.27-.69.974 1.434 2.948 1.663 2.792 2.39l-.518 2.456c.343-.014.674-.037.988-.08l.492-2.556c.055-.278.107-.653.107-.653-.19-.192-.651-.598-.91-1.091-.349-.664-.159-1.01-.484-1.875.011.006.11-.194.337-.194zm-10.054-3.59a.23.23 0 0 1-.222-.246.232.232 0 0 1 .248-.215c.132.006.227.12.222.246a.236.236 0 0 1-.248.215z" fill="#fff"/><path d="M78.71 116.086s.89-.364.97-.624l-.118-.295c-.084-.192-.072-.401.09-.515l.962-.662 1.607.307s-.291-.361-.262-.845l-1.533-.323-1.446.876a1.39 1.39 0 0 0-.46 1.66l.19.421zm11.361 4.162c.288-.011.605-.017.954-.017 0 0 .827-2.401.873-2.479a20.321 20.321 0 0 1-1.798-.941c.245.363.841.781.723 1.102l-.752 2.335z" fill="#fff"/><path d="M97.941 106.004H75.088v8.542c0 3.493 2.544 5.68 6.297 5.68 3.137 0 3.964.12 5.13 1.271.805-.796 1.47-1.094 2.836-1.205l.031-.132.72-2.213c-.04-.048-1.218-1.38-1.218-1.38-.467.155-.859.181-1.518.181-.677 0-1.44-.078-2.267-.232a1.005 1.005 0 0 0-.24-.026c-.1 0-.109.009-.135.057l-.144.235-.262.429-.493-.111-2.192-.513-.3.493.046.051.268.292-.118.381c-.161.498-.685 1.079-.844 1.24l-.547.584-.498-.627-.375-.467c-.395-.438-.487-1.111-.265-1.815a.032.032 0 0 1-.023.009l-.62.255-.279-.602-.196-.426a2.068 2.068 0 0 1 .695-2.508l1.766-.99 1.679.329c.04-.161.1-.733.15-.879-.032-.003-.063-.011-.095-.011l-.968.357-.934-.641s-.365-.349-.034-.698l.904-1.36-2.29-2.857 3.52 1.437.234-.289.475-.564.539.51c.152.145.239.326.282.506.97.375 2.708 1.483 2.86 3.284l-.544.217v.015c.124.146.228.206.26.211l2.511.247c.064-.012.145-.041.234-.066.311-.106.78-.258 1.337-.258.452 0 .89.103 1.31.298.156-.057.346-.1.565-.115l.12-.002c1.346 0 2.014.998 2.55 1.794.09.138.179.269.271.398.47.659 1.083 1.623 1.11 1.664l.276.429-.34.392c-.262.301-.654.653-1.328.653a2.47 2.47 0 0 1-.455-.046 2.02 2.02 0 0 1-.4-.12c-.02.131-.047.289-.073.423L93.63 120c2.635-.644 4.31-2.622 4.31-5.451l.002-8.545zm-22.853-.687h17.771c-.887-.91-.875-2.064-.648-2.814a3.038 3.038 0 0 1-.662-.432 292.63 292.63 0 0 1-3.368 2.427l-.118.081-6.975-1.254h-.14c-.168 0-.413-.006-.68-.038a.676.676 0 0 1-.77.516.674.674 0 0 1-.446-.275.657.657 0 0 1-.121-.51l.026-.149c-.72-.503-1.383-1.628-1.09-2.814l.03-.125.1-.072c.015-.011.136-.092.314-.195l-.507-.077a.349.349 0 0 1-.288-.395.343.343 0 0 1 .398-.286l1.207.189.11-4.226 1.797-1.889 1.12 2.345-1.183 4.064 1.066.167a.345.345 0 0 1 .288.395.344.344 0 0 1-.343.286c-.018 0-.038 0-.055-.003l-.867-.14c.011.025.028.04.04.068.092.189.297.327.418.384l5.318.083c.224-.218.783-.761 1.357-1.337a2.857 2.857 0 0 1-1.864-2.359c-.732-.309-1.236-.773-1.515-1.377-.34-.747-.22-1.494-.13-1.857-.709-.258-1.455-.727-2.215-1.477h-8.009c.343.915.634 1.909.634 2.897v10.199z" fill="#FFDD2D"/><path d="M82.408 109.711a.229.229 0 0 0-.247.214.227.227 0 0 0 .221.246.234.234 0 0 0 .251-.214c0-.126-.092-.244-.225-.246zM97.91 125.2l-1.317-.501.363-1.351.4-1.474s-2.333 1.257-5.62 2.202c-.934.266-1.64.386-1.64.386v1.002s-1.757.303-3.534.303h-.101c-1.777 0-3.534-.303-3.534-.303v-1.002s-.71-.12-1.64-.386c-3.287-.945-5.617-2.202-5.617-2.202l.394 1.474.372 1.351-1.32.501-1.463.544c1.68.805 4.004 1.979 6.133 2.557l-.5 1.362s2.698 1.223 7.195 1.234v.003h.064v-.003c4.502-.011 7.199-1.234 7.199-1.234l-.504-1.362c2.128-.578 4.459-1.752 6.13-2.557l-1.46-.544zm-22.695.636l2.166-.716-.64-2.075c.954.538 3.094 1.345 4.333 1.72l-1.046 2.854c-1.913-.523-3.506-1.133-4.813-1.783zm11.3 4.345c-2.514 0-5.386-.575-6.23-.872l1.285-3.456c1.065.309 3.284.639 4.894.627h.101c1.61.012 3.823-.318 4.894-.627l1.282 3.456c-.844.3-3.713.872-6.225.872zm6.483-2.562l-1.043-2.854c1.241-.375 3.376-1.182 4.332-1.72l-.636 2.075 2.163.716c-1.31.65-2.895 1.26-4.816 1.783zm-6.485-56.351c2.68 0 4.823.882 6.007 1.824 0 0 .351-2.105 1.552-3.962l-2.157.243-1.13-2.385-2.169 1.111-2.103-2.067-2.097 2.067-2.172-1.11-1.126 2.384-2.158-.243c1.201 1.858 1.553 3.962 1.553 3.962 1.186-.942 3.324-1.824 6-1.824zm-5.493-1.06l.599.064.26-.541.754-1.603 1.4.718.542.275.432-.424 1.51-1.488 1.512 1.488.432.424.541-.275 1.392-.718.763 1.603.254.54.599-.062.57-.069a13.43 13.43 0 0 0-.593 1.603c-1.51-.835-3.474-1.31-5.477-1.31-1.993 0-3.955.474-5.47 1.31a13.64 13.64 0 0 0-.594-1.603l.574.069zm36.925 28.98c3.466 0 4.623-3.504 4.672-3.653l.386-1.234-1.299.04h-.005c-.458 0-4.281-.1-6.992-3.524l-.257-.317c-1.771-2.24-3.451-4.366-6.452-5.337a3 3 0 0 1 .38-.283c1.593-1.042 2.52-2.307 2.754-3.776.34-2.21-1.077-3.97-1.141-4.042l-.965-1.185-.602 1.406c-.04.088-1.054 2.338-3.186 2.338h-.159c-.146-.008-.285-.014-.423-.025.075-1.005-.11-2.56-1.527-4.017-1.702-1.755-3.794-2.018-4.888-2.018-.585 0-.974.072-1.015.077l-1.457.287.899 1.176c.706.908 1.345 2.582.587 3.458-.242.278-.74.504-1.218.73-.983.45-2.322 1.074-2.322 2.665 0 1.031.804 2.107 2.261 3.023 4.316 2.697 6.977 5.511 8.127 8.617 1.777 4.778-.542 7.503-2.794 8.937l-1.012.647.885.807c.118.104 1.201 1.051 2.8 1.189.302.02.593.037.864.037a8.984 8.984 0 0 0 2.607-.375c-.196.34-.435.687-.737 1.036-1.288 1.483-2.872 2.158-5.151 2.193l-.847.014-.066.845c-.009.168-.072 1.734 1.42 3.066.228.205.504.375.792.515-1.011.904-2.04 2.479-2.238 5.178-.167 2.253-.709 3.086-.715 3.095l-.936 1.42 1.691.023c2.795 0 4.935-.767 6.418-2.285.876-.899 1.378-1.912 1.674-2.811a4.558 4.558 0 0 0 1.933.965c.311.071.651.111 1.017.111.789 0 1.449-.166 1.524-.183l1.08-.286-.478-1.002c-.035-.08-.936-2.09.035-4.958.417-1.24.63-2.35.734-3.215.68.352 1.59.644 2.769.647 2.673 0 3.851-1.984 3.906-2.067l.527-.91-.976-.401c-3.187-1.314-3.892-4.844-4.034-6.756.289.055.617.106.988.118h.162zm2.526 7.483s-.933 1.611-3.074 1.611h-.025c-2.57-.014-3.607-1.571-3.607-1.571s.15 2.027-.778 4.76c-1.115 3.295.009 5.651.009 5.651s-.599.161-1.291.161c-.265 0-.541-.026-.801-.095-2.146-.507-2.682-2.447-2.682-2.447s.199 6.558-7.495 6.558h-.061s.677-.916.879-3.553c.366-4.866 3.681-5.533 3.681-5.533s-1.769-.221-2.535-.905c-1.198-1.079-1.115-2.327-1.115-2.327 2.708-.037 4.48-.953 5.831-2.508 1.464-1.683 1.706-3.495 1.706-3.495s-1.455 1.311-4.27 1.311c-.247 0-.513-.012-.783-.037-1.331-.106-2.253-.948-2.253-.948 2.93-1.866 4.986-5.124 3.163-10.03-1.461-3.931-4.969-6.868-8.501-9.08-1.175-.731-1.83-1.541-1.83-2.24 0-1.643 2.351-1.694 3.316-2.8 1.112-1.282.415-3.363-.55-4.614 0 0 .326-.066.838-.066 1.017 0 2.777.255 4.224 1.744 1.921 1.975 1.123 4.125 1.123 4.125l.516.1c.308.066.613.077.93.092l.208.002c2.791 0 4.039-2.9 4.039-2.9s2.967 3.628-1.401 6.467c-.752.487-1.083.936-.996 1.417l.069.315.311.055c3.166.853 4.768 3.023 6.724 5.49 2.97 3.753 7.173 3.873 7.691 3.873h.055s-.959 3.009-3.785 3.009c-.046 0-.087 0-.136-.003-1.299-.046-1.964-.54-1.964-.54s-.51 6.832 4.62 8.951z" fill="#353548"/><path d="M111.858 85.542c1.294.684 2.046 1.6 2.705 2.413.648.793 1.265 1.557 2.227 1.875.343.117.706.172 1.075.172 1.446 0 2.898-.88 3.448-2.096l.553-1.22-1.339-.08c-.064-.002-1.787-.157-3.705-2.106-.79-.799-1.743-1.22-2.772-1.22-1.255 0-2.186.624-2.29.687l-1.233.862 1.331.713zm2.195-1.34c.646 0 1.398.217 2.109.947 2.233 2.253 4.31 2.38 4.31 2.38-.378.83-1.472 1.56-2.605 1.56-.262 0-.524-.04-.786-.13-1.535-.515-2.086-2.805-4.785-4.23 0 0 .755-.527 1.757-.527zm-1.59 13.503v.046c-.778-6.235-5.335-10.738-10.406-13.477-.469-.25-.901-.461-1.322-.665 1.544.238 4.03.267 5.949-1.388 0 0-2.936 2.147-8.95.198 1.665 1.073 4.9 2.588 7.852 5.04 7.384 6.447 2.1 12.737 2.1 12.737 2.654-2.751 2.763-5.7 1.982-8.107 1.398 2.31 2.291 5.115 2.152 8.573-.204 4.956-2.944 9.241-5.828 12.685-1.385 1.672-1.696 3.724-1.696 3.724s.559-1.812 2.163-3.676c3.091-3.595 5.733-7.331 6.079-12.713.319.977 1.636 3.693 3.724 4.715.006.003-2.618-1.569-3.799-7.692zm-39.349 23.07c-.003-.008-.538-.842-.711-3.095-.202-2.699-1.228-4.273-2.241-5.178.293-.137.564-.306.792-.515 1.49-1.332 1.426-2.897 1.417-3.066l-.057-.845-.853-.014c-2.273-.037-3.86-.713-5.148-2.193a6.812 6.812 0 0 1-.738-1.036 8.953 8.953 0 0 0 2.605.375c.276 0 .561-.017.864-.037 1.599-.138 2.682-1.082 2.803-1.188l.884-.807-1.011-.648c-2.261-1.437-4.572-4.162-2.797-8.937 1.15-3.106 3.808-5.92 8.13-8.616 1.457-.917 2.255-1.993 2.255-3.023 0-1.592-1.337-2.219-2.32-2.666-.477-.226-.976-.452-1.218-.73-.76-.873-.118-2.55.585-3.458l.905-1.176-1.464-.287c-.043-.005-.426-.077-1.014-.077-1.094 0-3.18.264-4.885 2.018-1.42 1.46-1.608 3.015-1.536 4.017-.138.011-.276.017-.42.025h-.156c-2.138 0-3.149-2.25-3.189-2.338l-.602-1.406-.974 1.185c-.055.072-1.478 1.835-1.132 4.042.23 1.469 1.158 2.734 2.751 3.776.173.109.294.206.38.284-2.998.97-4.675 3.1-6.447 5.338l-.256.318c-2.708 3.424-6.54 3.524-6.998 3.524l-1.304-.04.397 1.234c.046.149 1.201 3.653 4.67 3.653l.167-.006c.366-.011.694-.06.988-.117-.144 1.909-.85 5.439-4.039 6.756l-.974.4.528.911c.052.083 1.233 2.067 3.912 2.067 1.17-.003 2.08-.296 2.762-.647.104.864.317 1.975.735 3.214.97 2.869.066 4.878.032 4.958l-.479 1.002 1.084.287c.072.017.737.183 1.524.183.368 0 .708-.04 1.014-.112a4.505 4.505 0 0 0 1.935-.965 7.226 7.226 0 0 0 1.671 2.812c1.487 1.517 3.624 2.284 6.418 2.284l1.695-.023-.94-1.417zm-.818.524c-7.694 0-7.498-6.558-7.498-6.558s-.536 1.94-2.682 2.447c-.257.069-.53.095-.798.095-.692 0-1.288-.161-1.288-.161s1.118-2.356.003-5.651c-.922-2.734-.772-4.76-.772-4.76s-1.034 1.557-3.607 1.571h-.026c-2.14 0-3.074-1.611-3.074-1.611 5.128-2.116 4.624-8.946 4.624-8.946s-.665.492-1.968.541c-.046.003-.089.003-.135.003-2.829 0-3.785-3.009-3.785-3.009h.057c.522 0 4.72-.12 7.69-3.873 1.955-2.468 3.56-4.635 6.72-5.49l.317-.055.069-.315c.086-.48-.242-.93-.994-1.417-4.367-2.843-1.4-6.467-1.4-6.467s1.242 2.897 4.039 2.897c.069 0 .132-.003.204-.003.314-.017.626-.028.93-.094l.517-.1s-.798-2.15 1.126-4.125c1.446-1.492 3.206-1.744 4.22-1.744.516 0 .836.066.836.066-.962 1.254-1.66 3.332-.548 4.615.962 1.102 3.31 1.156 3.31 2.8 0 .695-.654 1.508-1.829 2.238-3.535 2.213-7.043 5.15-8.501 9.08-1.82 4.907.233 8.162 3.169 10.031 0 0-.922.842-2.256.948-.27.026-.533.037-.786.037-2.812 0-4.267-1.311-4.267-1.311s.242 1.812 1.697 3.495c1.36 1.555 3.131 2.471 5.84 2.508 0 0 .086 1.248-1.113 2.327-.769.681-2.538.905-2.538.905s3.319.667 3.682 5.533c.199 2.637.87 3.553.87 3.553h-.055z" fill="#353548"/><path d="M55.16 90.005c.371 0 .734-.054 1.077-.172.968-.318 1.581-1.082 2.23-1.875.662-.813 1.409-1.729 2.702-2.413l1.33-.71-1.235-.862c-.104-.066-1.031-.687-2.285-.687-1.03 0-1.987.418-2.774 1.22-1.918 1.946-3.638 2.104-3.701 2.107l-1.34.077.55 1.222c.553 1.211 2.002 2.093 3.446 2.093zm1.705-4.852c.714-.73 1.466-.948 2.114-.948.997 0 1.752.527 1.752.527-2.696 1.428-3.25 3.716-4.79 4.23a2.36 2.36 0 0 1-.781.13c-1.132 0-2.227-.727-2.602-1.56 0-.003 2.074-.13 4.307-2.38zm4.341 15.512c-.144-3.458.749-6.263 2.149-8.574-.78 2.408-.674 5.357 1.982 8.108 0 0-5.284-6.29 2.103-12.736 2.956-2.454 6.188-3.968 7.85-5.042-6.012 1.95-8.948-.197-8.948-.197 1.919 1.655 4.405 1.626 5.95 1.386-.419.203-.857.415-1.32.663-5.076 2.74-9.63 7.243-10.412 13.478v-.049c-1.178 6.124-3.8 7.695-3.8 7.695 2.087-1.022 3.4-3.736 3.72-4.715.349 5.382 2.99 9.118 6.081 12.714 1.605 1.863 2.17 3.675 2.17 3.675s-.315-2.053-1.706-3.724c-2.878-3.438-5.618-7.727-5.82-12.682zm23.57-12.615v1.236c.43-.518 1.26-.412 1.26-.412v1.783s-.03.876-.344 1.257h1.795c-.308-.378-.34-1.257-.34-1.257v-1.783s.83-.106 1.256.412v-1.237h-3.627zm-.772-7.335c.573.453.904.527.916.536l.225.103v-1.165l-2.109-.882c0 .003.02.675.968 1.408zm5.016 0c.953-.733.97-1.408.97-1.408l-2.108.882v1.165l.221-.103c.015-.009.343-.083.917-.536z" fill="#353548"/><path d="M92.819 75.972c0-1.767-2.993-3.355-6.298-3.355h-.02c-3.304 0-6.297 1.588-6.297 3.355l.066.435 1.32 7.526-1.326.764-3.428 1.99h.012s-.772.392-1.13.635c-1.304.902-1.58 2.216-.823 2.76.187-1.07 1.04-2.193 2.635-2.193 1.15 0 2.026.59 2.734 1.474.182.224.355.461.516.719.199.323.397.607.596.882h-8.83c.649 1.296 1.265 2.67 1.265 4.162v19.42c0 4.701 3.639 6.945 7.574 6.945 3.042 0 3.451-.137 5.13 1.523 1.671-1.663 2.08-1.523 5.126-1.523 3.937 0 7.57-2.244 7.57-6.945v-19.42c0-1.492.617-2.866 1.268-4.162h-8.833c.196-.272.395-.559.594-.882.164-.258.334-.495.512-.719.715-.887 1.588-1.474 2.737-1.474 1.596 0 2.446 1.12 2.636 2.193.758-.544.484-1.858-.83-2.76-.351-.243-1.123-.635-1.123-.635h.011l-3.428-1.99-1.32-.764 1.32-7.526.064-.435zm-11.316.876l4.638 1.563v7.24l-3.413-1.79-1.225-7.013zm.96 15.378c.76.753 1.506 1.22 2.215 1.477-.093.364-.213 1.114.13 1.86.279.602.786 1.066 1.514 1.375a2.859 2.859 0 0 0 1.864 2.359c-.573.575-1.132 1.116-1.36 1.337l-5.314-.083c-.121-.061-.326-.195-.418-.387-.012-.026-.029-.04-.037-.069l.867.141c.02.002.037.002.054.002a.343.343 0 0 0 .055-.68l-1.066-.167 1.184-4.062-1.12-2.344-1.798 1.889-.11 4.225-1.206-.189a.345.345 0 0 0-.398.286.349.349 0 0 0 .288.395l.507.078c-.181.103-.3.183-.314.194l-.104.072-.028.126c-.294 1.185.371 2.31 1.089 2.814l-.026.149a.668.668 0 0 0 .12.509.665.665 0 0 0 .557.284.683.683 0 0 0 .66-.527c.267.032.512.037.679.037h.141l6.975 1.251.118-.077c.556-.387 2.673-1.921 3.367-2.428.19.164.403.313.663.435-.225.75-.24 1.904.65 2.815H75.089V95.129c0-.988-.291-1.981-.634-2.897h8.008v-.006zm8.619 9.327c-.706.515-2.521 1.831-3.178 2.29l-6.338-1.131.044-.169a5.5 5.5 0 0 0 .173-1.297l5.326.086.1-.103c.082-.08 1.77-1.7 2.631-2.634.204.255.46.499.795.713-.115.618-.066 1.5.447 2.245zm-10.61-1.091c.15.312.42.521.608.638a7.247 7.247 0 0 1-.113 1.148c-.017.089-.04.172-.066.255-.014.051-.029.094-.04.129-.28 0-.83-.035-1.28-.198-.498-.183-1.24-1.091-1.068-2.09.216-.131.714-.409 1.181-.409.36-.003.605.166.778.527zm-.66-1.257l.107-4.056.916-.965.576 1.197-1.135 3.893-.464-.069zm11.212 21.029c-.346 0-.666.006-.954.017l.755-2.333c.118-.323-.478-.738-.723-1.102.372.232 1.334.739 1.798.942-.05.074-.876 2.476-.876 2.476zm2.368-2.651l-.493 2.554c-.314.043-.648.066-.99.08l.518-2.456c.155-.73-1.818-.956-2.792-2.39-.475.532-1.37.69-2.27.69-.82 0-1.642-.132-2.14-.23a2.356 2.356 0 0 0-.366-.034c-.288 0-.55.089-.732.392l-.144.241-2.687-.63-.669 1.099c-.095.178-.1.33.052.495l.182.198c-.124.389-.683.976-.683.976l-.4-.495c-.318-.352-.266-.993.066-1.589l1.066-1.789 2.276.326-.355-.801c-.475-1.059.248-2.408.326-3.184-.026.235-.242.287-.496.287-.23 0-.487-.043-.657-.043-.066 0-.124.005-.155.028l-.617.373-.487-.427c-.057-.083-.077-.275.067-.418l1.126-1.254-1.33-1.543 1.863.931.567-.685c.156.152.09.55.09.55.582.014 2.212.91 2.299 3 .005.063.005.135.005.203 0 0 .015.026.044.069.115.158.432.561.835.598l2.575.252h.012c.282 0 .844-.329 1.564-.329.392 0 .83.1 1.296.392 0 0 .234-.183.614-.203.029-.003.06-.003.09-.003 1.155 0 1.633 1.037 2.252 1.898.467.656 1.09 1.629 1.09 1.629-.231.272-.445.421-.802.421-.097 0-.21-.009-.331-.032-1.239-.226-1.417-2.756-2.123-2.957a.406.406 0 0 0-.112-.014c-.228 0-.329.2-.329.2.323.862.136 1.211.481 1.875.26.493.72.899.91 1.091 0 .006-.051.378-.106.658zm-13.83-2.416l.118.295c-.078.258-.971.624-.971.624l-.193-.418a1.387 1.387 0 0 1 .46-1.66l1.447-.876 1.532.323a1.35 1.35 0 0 0 .262.845l-1.607-.306-.962.661c-.161.112-.173.321-.087.512zm14.072 4.83l.44-2.285c.024-.134.052-.292.073-.424.123.052.256.095.4.121.164.031.317.046.455.046.675 0 1.066-.353 1.328-.653l.34-.392-.276-.43a41.118 41.118 0 0 0-1.11-1.663 8.828 8.828 0 0 1-.27-.398c-.536-.796-1.207-1.795-2.552-1.795l-.121.003a1.943 1.943 0 0 0-.565.115 3.058 3.058 0 0 0-1.311-.298c-.556 0-1.026.152-1.337.258-.089.025-.17.054-.233.065l-2.515-.246c-.031-.005-.135-.066-.26-.214v-.012l.545-.218c-.152-1.8-1.892-2.908-2.863-3.283a1.02 1.02 0 0 0-.282-.507l-.542-.509-.475.567-.234.289-3.52-1.437 2.29 2.857-.904 1.359c-.332.35.034.699.034.699l.934.638.968-.358c.034 0 .063.009.095.012-.046.146-.107.718-.147.879l-1.68-.33-1.766.991a2.067 2.067 0 0 0-.694 2.508l.196.426.28.601.616-.255a.045.045 0 0 0 .023-.011c-.222.704-.132 1.374.265 1.815l.374.47.499.627.547-.585c.162-.16.683-.741.844-1.239l.118-.381-.267-.292-.044-.051.3-.493 2.192.513.493.111.262-.429.144-.235c.026-.048.034-.057.135-.057.078 0 .156.009.24.026.826.154 1.59.232 2.266.232.657 0 1.049-.026 1.519-.181 0 0 1.178 1.328 1.218 1.38l-.72 2.21-.032.135c-1.365.108-2.03.406-2.834 1.205-1.167-1.151-1.994-1.271-5.13-1.271-3.755 0-6.298-2.187-6.298-5.68v-8.539h22.85l.006 8.539c.002 2.834-1.671 4.809-4.307 5.454zm4.94-27.771c-.348.916-.64 1.91-.64 2.897l.004 6.372c-1.34-.223-1.498-1.657-1.504-1.72l-.026-.292-.288-.026c-.582-.054-.968-.3-1.293-.615-.657-.653-.66-1.712-.657-1.721-.009.054-.723 1.048.106 2.133.349.458.853.738 1.507.85.153.796.749 1.918 2.155 2.09v3.12h-3.953c-1.823-1.008-1.051-2.783-1.014-2.857l.156-.338-.349-.131c-1.973-.728-1.431-2.686-1.403-2.769l.081-.286-.268-.126c-1.63-.75-1.409-2.774-1.388-2.857-.502.404-.683 1.228-.337 2.036a24.99 24.99 0 0 1-.712.75 2.2 2.2 0 0 1-1.74-2.041l-.003-.238-.222-.086c-.66-.243-1.112-.607-1.334-1.096-.25-.541-.16-1.108-.091-1.38.192.043.385.074.57.089.19.02.386.031.582.031h.026c.195 0 .389-.011.579-.031 1.051-.103 2.23-.553 3.457-1.761h8v.003zm-6.159-6.441l1.562.902H94l.392.226a4.606 4.606 0 0 0-2.12 1.257c-.02.017-.04.04-.061.06a6.45 6.45 0 0 0-.38.438l-.073.091a7.25 7.25 0 0 0-.342.478 11.087 11.087 0 0 0-.435.693c-1.112 1.904-2.887 3.04-4.465 3.043-1.576-.003-3.35-1.14-4.463-3.043a12.434 12.434 0 0 0-.371-.601l-.072-.106a11.738 11.738 0 0 0-.415-.564 10.912 10.912 0 0 0-.369-.427c-.026-.02-.043-.045-.069-.068a4.584 4.584 0 0 0-2.123-1.251l.397-.226h.018l1.561-.902 1.605-.913L86.5 87.19l.009-.008.011.008 4.287-2.318 1.607.913zm-2.114-1.921l-3.417 1.79V78.41l4.635-1.563-1.218 7.016zm-3.788-6.25L81.43 75.62c.432-1.017 2.426-1.881 5.082-1.884 2.659.003 4.652.867 5.081 1.884l-5.081 1.995zm62.927 30.298V96.449h6.766v-4.17h-18.458v4.17h6.766v11.463h4.926zm13.5-6.536v-9.098h-4.762v15.634h4.204l8.211-9.098v9.098h4.762V92.278h-4.204l-8.211 9.098zm28.437.722v5.814h4.763V92.278h-4.763v5.715h-7.653v-5.715h-4.762v15.634h4.762v-5.814h7.653zm18.025 5.814c1.084 0 2.069-.099 2.989-.361 2.464-.69 4.072-2.694 4.072-5.42 0-2.594-1.378-4.4-3.578-5.222-1.054-.394-2.3-.427-3.483-.427h-4.894v-4.204h-4.761v15.634h9.655zm-.822-7.751c.658 0 1.282 0 1.84.197.789.263 1.249.919 1.249 1.708 0 .821-.46 1.51-1.216 1.839-.526.23-1.051.23-1.873.23h-4.072v-3.974h4.072zM225.002 102l5.683 5.912h6.337l-7.914-8.146 7.62-7.488h-5.978l-5.748 5.88h-1.313v-5.88h-4.761v15.634h4.761V102h1.313zm21.819-10.149c-6.404 0-10.246 3.613-10.246 8.277s3.842 8.277 10.246 8.277c6.374 0 10.217-3.613 10.217-8.277s-3.843-8.277-10.217-8.277zm0 12.744c-3.185 0-5.219-1.905-5.219-4.467 0-2.562 2.034-4.434 5.219-4.434 3.154 0 5.223 1.872 5.223 4.434 0 2.562-2.069 4.467-5.223 4.467zm26.077-13.204h-4.763v1.577c-5.977.131-9.558 2.66-9.558 7.127s3.581 6.799 9.558 6.93v1.577h4.763v-1.577c6.009-.131 9.59-2.463 9.59-6.93s-3.581-6.996-9.59-7.127V91.39zm-4.763 12.284c-3.284-.131-4.73-1.478-4.73-3.58 0-2.102 1.446-3.613 4.73-3.744v7.324zm4.763-7.324c3.318.131 4.729 1.642 4.729 3.744 0 2.102-1.411 3.449-4.729 3.58v-7.324zm25.434-4.96h-4.763v1.577c-5.978.131-9.556 2.66-9.556 7.127s3.578 6.799 9.556 6.93v1.577h4.763v-1.577c6.011-.131 9.591-2.463 9.591-6.93s-3.58-6.996-9.591-7.127V91.39zm-4.763 12.284c-3.284-.131-4.729-1.478-4.729-3.58 0-2.102 1.445-3.613 4.729-3.744v7.324zm4.763-7.324c3.317.131 4.73 1.642 4.73 3.744 0 2.102-1.413 3.449-4.73 3.58v-7.324z" fill="#353548"/></g><defs><clipPath id="a"><path fill="#fff" transform="translate(48 64)" d="M0 0h260v68.346H0z"/></clipPath></defs></svg>