<svg width="79" height="18" viewBox="0 0 79 18" fill="none" xmlns="http://www.w3.org/2000/svg">
<path d="M2.808 17.004H0V0.996002H10.968V3.468H2.808V7.62H10.8V10.092H2.808V17.004Z" fill="black"/>
<path d="M26.4356 17.004H23.2436L22.0676 13.932H14.7236L13.5476 17.004H10.3556L16.6436 0.996002H20.1476L26.4356 17.004ZM21.2756 11.46L18.3956 3.828L15.5156 11.46H21.2756Z" fill="black"/>
<path d="M41.7681 17.004H38.4081L33.9201 10.74L29.4321 17.004H26.0721L32.0721 8.796L26.4321 0.996002H29.7921L33.9201 6.876L38.0241 0.996002H41.4081L35.7921 8.772L41.7681 17.004Z" fill="black"/>
<path d="M51.1793 17.004H43.0913V0.996002H50.9633C52.3873 0.996002 53.4993 1.388 54.2993 2.172C55.1153 2.94 55.5233 3.908 55.5233 5.076C55.5233 6.036 55.2513 6.852 54.7073 7.524C54.1793 8.18 53.5233 8.588 52.7393 8.748C53.6033 8.876 54.3313 9.324 54.9233 10.092C55.5313 10.844 55.8353 11.708 55.8353 12.684C55.8353 13.964 55.4193 15.004 54.5873 15.804C53.7713 16.604 52.6353 17.004 51.1793 17.004ZM50.3873 7.62C51.0913 7.62 51.6433 7.428 52.0433 7.044C52.4433 6.66 52.6433 6.164 52.6433 5.556C52.6433 4.932 52.4433 4.428 52.0433 4.044C51.6433 3.66 51.0913 3.468 50.3873 3.468H45.8993V7.62H50.3873ZM50.5073 14.532C51.2753 14.532 51.8753 14.34 52.3073 13.956C52.7393 13.556 52.9553 13.004 52.9553 12.3C52.9553 11.676 52.7393 11.156 52.3073 10.74C51.8753 10.308 51.2753 10.092 50.5073 10.092H45.8993V14.532H50.5073Z" fill="black"/>
<path d="M60.9818 17.004H58.1738V0.996002H60.9818V17.004Z" fill="black"/>
<path d="M69.8567 17.004H63.9047V0.996002H69.8567C72.3367 0.996002 74.3527 1.74 75.9047 3.228C77.4567 4.716 78.2327 6.644 78.2327 9.012C78.2327 11.364 77.4567 13.284 75.9047 14.772C74.3687 16.26 72.3527 17.004 69.8567 17.004ZM69.8567 14.532C71.5367 14.532 72.8727 14.004 73.8647 12.948C74.8567 11.892 75.3527 10.58 75.3527 9.012C75.3527 7.396 74.8647 6.068 73.8887 5.028C72.9287 3.988 71.5847 3.468 69.8567 3.468H66.7127V14.532H69.8567Z" fill="black"/>
</svg>
