<svg xmlns="http://www.w3.org/2000/svg" xmlns:xlink="http://www.w3.org/1999/xlink"><symbol id="arrow-check" viewBox="0 0 14 9">
<path d="M6.97399 8.00546C6.79934 8.00647 6.62622 7.97284 6.46454 7.90648C6.30286 7.84013 6.1558 7.74236 6.03181 7.61879L0.723759 2.28546C0.600031 2.16114 0.501884 2.01355 0.434923 1.85112C0.367961 1.68869 0.333496 1.5146 0.333496 1.33879C0.333496 1.16298 0.367961 0.988885 0.434923 0.826456C0.501884 0.664026 0.600031 0.51644 0.723759 0.392122C0.847488 0.267804 0.994375 0.169189 1.15603 0.101908C1.31769 0.0346279 1.49096 -2.6198e-09 1.66594 0C1.84092 2.61981e-09 2.01418 0.0346279 2.17584 0.101908C2.3375 0.169189 2.48439 0.267804 2.60812 0.392122L6.97399 4.80546L11.3531 0.565455C11.4752 0.429069 11.624 0.319457 11.7901 0.243476C11.9563 0.167494 12.1363 0.126778 12.3188 0.123872C12.5013 0.120966 12.6825 0.155933 12.851 0.226588C13.0194 0.297243 13.1716 0.402065 13.2979 0.534498C13.4242 0.66693 13.522 0.824125 13.5851 0.99625C13.6482 1.16838 13.6752 1.35173 13.6646 1.53484C13.6539 1.71796 13.6058 1.8969 13.5232 2.06046C13.4405 2.22403 13.3252 2.36871 13.1844 2.48545L7.87635 7.63212C7.63368 7.86721 7.31105 8.00069 6.97399 8.00546Z" fill="#7E83A3"/>
</symbol><symbol id="car-selected" viewBox="0 0 20 18">
<path d="M17 16H3V17C3 17.2652 2.89464 17.5196 2.70711 17.7071C2.51957 17.8946 2.26522 18 2 18H1C0.734784 18 0.48043 17.8946 0.292893 17.7071C0.105357 17.5196 0 17.2652 0 17V7L2.48 1.212C2.63432 0.852001 2.89096 0.545239 3.21805 0.32978C3.54515 0.114322 3.92832 -0.000347568 4.32 7.91365e-07H15.68C16.0713 4.4012e-05 16.4541 0.114897 16.7808 0.330331C17.1075 0.545765 17.3638 0.852314 17.518 1.212L20 7V17C20 17.2652 19.8946 17.5196 19.7071 17.7071C19.5196 17.8946 19.2652 18 19 18H18C17.7348 18 17.4804 17.8946 17.2929 17.7071C17.1054 17.5196 17 17.2652 17 17V16ZM18 9H2V14H18V9ZM2.176 7H17.824L15.681 2H4.32L2.177 7H2.176ZM4.5 13C4.10218 13 3.72064 12.842 3.43934 12.5607C3.15804 12.2794 3 11.8978 3 11.5C3 11.1022 3.15804 10.7206 3.43934 10.4393C3.72064 10.158 4.10218 10 4.5 10C4.89782 10 5.27936 10.158 5.56066 10.4393C5.84196 10.7206 6 11.1022 6 11.5C6 11.8978 5.84196 12.2794 5.56066 12.5607C5.27936 12.842 4.89782 13 4.5 13ZM15.5 13C15.1022 13 14.7206 12.842 14.4393 12.5607C14.158 12.2794 14 11.8978 14 11.5C14 11.1022 14.158 10.7206 14.4393 10.4393C14.7206 10.158 15.1022 10 15.5 10C15.8978 10 16.2794 10.158 16.5607 10.4393C16.842 10.7206 17 11.1022 17 11.5C17 11.8978 16.842 12.2794 16.5607 12.5607C16.2794 12.842 15.8978 13 15.5 13Z" fill="#323752"/>
</symbol><symbol id="car-violet" viewBox="0 0 20 18">
<path d="M17 16H3V17C3 17.2652 2.89464 17.5196 2.70711 17.7071C2.51957 17.8946 2.26522 18 2 18H1C0.734784 18 0.48043 17.8946 0.292893 17.7071C0.105357 17.5196 0 17.2652 0 17V7L2.48 1.212C2.63432 0.852001 2.89096 0.545239 3.21805 0.32978C3.54515 0.114322 3.92832 -0.000347568 4.32 7.91365e-07H15.68C16.0713 4.4012e-05 16.4541 0.114897 16.7808 0.330331C17.1075 0.545765 17.3638 0.852314 17.518 1.212L20 7V17C20 17.2652 19.8946 17.5196 19.7071 17.7071C19.5196 17.8946 19.2652 18 19 18H18C17.7348 18 17.4804 17.8946 17.2929 17.7071C17.1054 17.5196 17 17.2652 17 17V16ZM18 9H2V14H18V9ZM2.176 7H17.824L15.681 2H4.32L2.177 7H2.176ZM4.5 13C4.10218 13 3.72064 12.842 3.43934 12.5607C3.15804 12.2794 3 11.8978 3 11.5C3 11.1022 3.15804 10.7206 3.43934 10.4393C3.72064 10.158 4.10218 10 4.5 10C4.89782 10 5.27936 10.158 5.56066 10.4393C5.84196 10.7206 6 11.1022 6 11.5C6 11.8978 5.84196 12.2794 5.56066 12.5607C5.27936 12.842 4.89782 13 4.5 13ZM15.5 13C15.1022 13 14.7206 12.842 14.4393 12.5607C14.158 12.2794 14 11.8978 14 11.5C14 11.1022 14.158 10.7206 14.4393 10.4393C14.7206 10.158 15.1022 10 15.5 10C15.8978 10 16.2794 10.158 16.5607 10.4393C16.842 10.7206 17 11.1022 17 11.5C17 11.8978 16.842 12.2794 16.5607 12.5607C16.2794 12.842 15.8978 13 15.5 13Z" fill="#7F5BD5"/>
</symbol><symbol id="car" viewBox="0 0 20 18">
<path d="M17 16H3V17C3 17.2652 2.89464 17.5196 2.70711 17.7071C2.51957 17.8946 2.26522 18 2 18H1C0.734784 18 0.48043 17.8946 0.292893 17.7071C0.105357 17.5196 0 17.2652 0 17V7L2.48 1.212C2.63432 0.852001 2.89096 0.545239 3.21805 0.32978C3.54515 0.114322 3.92832 -0.000347568 4.32 7.91365e-07H15.68C16.0713 4.4012e-05 16.4541 0.114897 16.7808 0.330331C17.1075 0.545765 17.3638 0.852314 17.518 1.212L20 7V17C20 17.2652 19.8946 17.5196 19.7071 17.7071C19.5196 17.8946 19.2652 18 19 18H18C17.7348 18 17.4804 17.8946 17.2929 17.7071C17.1054 17.5196 17 17.2652 17 17V16ZM18 9H2V14H18V9ZM2.176 7H17.824L15.681 2H4.32L2.177 7H2.176ZM4.5 13C4.10218 13 3.72064 12.842 3.43934 12.5607C3.15804 12.2794 3 11.8978 3 11.5C3 11.1022 3.15804 10.7206 3.43934 10.4393C3.72064 10.158 4.10218 10 4.5 10C4.89782 10 5.27936 10.158 5.56066 10.4393C5.84196 10.7206 6 11.1022 6 11.5C6 11.8978 5.84196 12.2794 5.56066 12.5607C5.27936 12.842 4.89782 13 4.5 13ZM15.5 13C15.1022 13 14.7206 12.842 14.4393 12.5607C14.158 12.2794 14 11.8978 14 11.5C14 11.1022 14.158 10.7206 14.4393 10.4393C14.7206 10.158 15.1022 10 15.5 10C15.8978 10 16.2794 10.158 16.5607 10.4393C16.842 10.7206 17 11.1022 17 11.5C17 11.8978 16.842 12.2794 16.5607 12.5607C16.2794 12.842 15.8978 13 15.5 13Z" fill="#7E83A3"/>
</symbol><symbol id="check" viewBox="0 0 11 9">
<path d="M1.91308 4.03516H1.91326C1.99256 4.03525 2.07081 4.05331 2.14213 4.08798C2.21341 4.12262 2.27591 4.17295 2.32497 4.2352L1.91308 4.03516ZM1.91308 4.03516H1.09394C0.890308 4.03516 0.776602 4.26975 0.902321 4.4292L0.902371 4.42927L4.11214 8.49567L4.11218 8.49573C4.32247 8.76188 4.72568 8.76114 4.93667 8.49617L4.93708 8.49566L10.6597 1.24398C10.6598 1.24378 10.66 1.24358 10.6602 1.24338C10.7884 1.08295 10.6699 0.85 10.4689 0.85H9.6498C9.48941 0.85 9.33668 0.9235 9.2376 1.05044C9.23751 1.05055 9.23742 1.05066 9.23734 1.05077L4.52403 7.02157M1.91308 4.03516L4.52403 7.02157M4.52403 7.02157L2.32506 4.23531L4.52403 7.02157Z" fill="white" stroke="white" stroke-width="0.3"/>
</symbol><symbol id="copy" viewBox="0 0 18 22">
<path d="M16.5 0.5H3.9375C3.83437 0.5 3.75 0.584375 3.75 0.6875V2C3.75 2.10312 3.83437 2.1875 3.9375 2.1875H15.5625V18.3125C15.5625 18.4156 15.6469 18.5 15.75 18.5H17.0625C17.1656 18.5 17.25 18.4156 17.25 18.3125V1.25C17.25 0.835156 16.9148 0.5 16.5 0.5ZM13.5 3.5H1.5C1.08516 3.5 0.75 3.83516 0.75 4.25V16.6883C0.75 16.8875 0.829687 17.0773 0.970312 17.218L5.03203 21.2797C5.08359 21.3312 5.14219 21.3734 5.20547 21.4086V21.4531H5.30391C5.38594 21.4836 5.47266 21.5 5.56172 21.5H13.5C13.9148 21.5 14.25 21.1648 14.25 20.75V4.25C14.25 3.83516 13.9148 3.5 13.5 3.5ZM5.20312 19.0672L3.18516 17.0469H5.20312V19.0672ZM12.5625 19.8125H6.70312V16.4844C6.70312 15.9664 6.28359 15.5469 5.76562 15.5469H2.4375V5.1875H12.5625V19.8125Z" fill="#7E83A3"/>
</symbol><symbol id="heart" viewBox="0 0 18 16">
<path d="M17.0273 3.53929C16.7655 2.93311 16.3881 2.3838 15.916 1.9221C15.4436 1.45903 14.8866 1.09103 14.2754 0.838118C13.6416 0.574823 12.9617 0.440054 12.2754 0.441634C11.3125 0.441634 10.373 0.705305 9.55664 1.20335C9.36133 1.32249 9.17578 1.45335 9 1.59593C8.82422 1.45335 8.63867 1.32249 8.44336 1.20335C7.62695 0.705305 6.6875 0.441634 5.72461 0.441634C5.03125 0.441634 4.35938 0.574446 3.72461 0.838118C3.11133 1.09202 2.55859 1.45726 2.08398 1.9221C1.61132 2.38328 1.23375 2.93272 0.972656 3.53929C0.701172 4.17015 0.5625 4.84007 0.5625 5.52952C0.5625 6.17991 0.695313 6.85765 0.958984 7.5471C1.17969 8.12327 1.49609 8.72093 1.90039 9.32445C2.54102 10.2795 3.42188 11.2756 4.51562 12.2854C6.32812 13.9592 8.12305 15.1155 8.19922 15.1623L8.66211 15.4592C8.86719 15.5901 9.13086 15.5901 9.33594 15.4592L9.79883 15.1623C9.875 15.1135 11.668 13.9592 13.4824 12.2854C14.5762 11.2756 15.457 10.2795 16.0977 9.32445C16.502 8.72093 16.8203 8.12327 17.0391 7.5471C17.3027 6.85765 17.4355 6.17991 17.4355 5.52952C17.4375 4.84007 17.2988 4.17015 17.0273 3.53929ZM9 13.9143C9 13.9143 2.04688 9.45921 2.04688 5.52952C2.04688 3.53929 3.69336 1.92601 5.72461 1.92601C7.15234 1.92601 8.39062 2.72288 9 3.88695C9.60938 2.72288 10.8477 1.92601 12.2754 1.92601C14.3066 1.92601 15.9531 3.53929 15.9531 5.52952C15.9531 9.45921 9 13.9143 9 13.9143Z" fill="#323752"/>
</symbol><symbol id="lang" viewBox="0 0 18 18">
<path d="M15.6875 14.6426C15.6914 14.6367 15.6973 14.6309 15.7012 14.625C16.9805 13.1035 17.75 11.1426 17.75 9C17.75 6.85742 16.9805 4.89648 15.7031 3.375C15.6992 3.36914 15.6934 3.36523 15.6895 3.35938C15.668 3.33398 15.6484 3.31055 15.627 3.28711C15.6191 3.27734 15.6113 3.26953 15.6035 3.25977L15.5234 3.16797L15.5215 3.16602C15.4922 3.13281 15.4609 3.09961 15.4316 3.06641L15.4297 3.06445C15.3672 2.99805 15.3047 2.93164 15.2402 2.86719L15.2383 2.86523L15.1445 2.77148L15.1387 2.76562C15.1094 2.73633 15.0801 2.70898 15.0508 2.68164C15.041 2.67188 15.0312 2.66211 15.0195 2.65234C15 2.63281 14.9805 2.61523 14.9609 2.59766C14.9551 2.5918 14.9473 2.58594 14.9414 2.57812C13.3828 1.13281 11.2949 0.25 9 0.25C6.70508 0.25 4.61719 1.13281 3.05664 2.57812C3.05078 2.58398 3.04297 2.58984 3.03711 2.59766C3.01758 2.61523 2.99805 2.63477 2.97852 2.6543C2.96875 2.66406 2.95898 2.67383 2.94727 2.68359C2.91797 2.71094 2.88867 2.74023 2.85938 2.76758L2.85352 2.77344L2.75977 2.86719L2.75781 2.86914C2.69336 2.93359 2.63086 3 2.56836 3.06641L2.56641 3.06836C2.53516 3.10156 2.50586 3.13477 2.47656 3.16797L2.47461 3.16992C2.44727 3.19922 2.41992 3.23047 2.39453 3.26172C2.38672 3.27148 2.37891 3.2793 2.37109 3.28906C2.34961 3.3125 2.33008 3.33789 2.30859 3.36133C2.30469 3.36719 2.29883 3.37109 2.29492 3.37695C1.01953 4.89648 0.25 6.85742 0.25 9C0.25 11.1426 1.01953 13.1035 2.29688 14.625C2.30078 14.6309 2.30664 14.6367 2.31055 14.6426L2.37109 14.7148C2.37891 14.7246 2.38672 14.7324 2.39453 14.7422L2.47461 14.834C2.47461 14.8359 2.47656 14.8359 2.47656 14.8379C2.50586 14.8711 2.53516 14.9043 2.56641 14.9355L2.56836 14.9375C2.63086 15.0039 2.69336 15.0703 2.75586 15.1348L2.75781 15.1367C2.78906 15.168 2.81836 15.1992 2.84961 15.2285L2.85547 15.2344C2.91992 15.2988 2.98633 15.3613 3.05273 15.4219C4.61719 16.8672 6.70508 17.75 9 17.75C11.2949 17.75 13.3828 16.8672 14.9434 15.4219C15.0099 15.3609 15.075 15.2984 15.1387 15.2344L15.1445 15.2285C15.1758 15.1973 15.207 15.168 15.2363 15.1367L15.2383 15.1348C15.3027 15.0703 15.3652 15.0039 15.4258 14.9375L15.4277 14.9355C15.457 14.9023 15.4883 14.8711 15.5176 14.8379C15.5176 14.8359 15.5195 14.8359 15.5195 14.834C15.5469 14.8047 15.5742 14.7734 15.5996 14.7422C15.6074 14.7324 15.6152 14.7246 15.623 14.7148C15.6451 14.6913 15.6666 14.6672 15.6875 14.6426ZM15.7676 11.8574C15.498 12.4941 15.1426 13.084 14.709 13.6191C14.2207 13.1971 13.6868 12.8309 13.1172 12.5273C13.3438 11.6113 13.4844 10.6055 13.5215 9.54688H16.3242C16.2656 10.3457 16.0781 11.1211 15.7676 11.8574ZM16.3242 8.45312H13.5215C13.4844 7.39453 13.3438 6.38867 13.1172 5.47266C13.6895 5.16797 14.2227 4.80078 14.709 4.38086C15.6515 5.54097 16.2153 6.96238 16.3242 8.45312ZM11.8574 2.23242C12.6328 2.56055 13.3379 3.01367 13.959 3.58398C13.5982 3.8912 13.2098 4.16449 12.7988 4.40039C12.4922 3.52148 12.0996 2.75781 11.6426 2.14648C11.7148 2.17383 11.7871 2.20312 11.8574 2.23242ZM10.0879 15.916C9.9082 16.0566 9.72852 16.1641 9.54688 16.2363V12.6133C10.3219 12.6673 11.084 12.8399 11.8066 13.125C11.6445 13.6055 11.457 14.0488 11.2402 14.4492C10.9004 15.082 10.502 15.5879 10.0879 15.916ZM11.2402 3.55078C11.4551 3.95312 11.6445 4.39648 11.8066 4.875C11.084 5.16007 10.3219 5.33265 9.54688 5.38672V1.76563C9.72656 1.83789 9.9082 1.94336 10.0879 2.08594C10.502 2.41211 10.9004 2.91797 11.2402 3.55078ZM9.54688 11.5176V9.54688H12.4277C12.3965 10.4102 12.2891 11.248 12.1094 12.043L12.1035 12.0664C11.2839 11.7556 10.4219 11.5705 9.54688 11.5176ZM9.54688 8.45312V6.48242C10.4414 6.42773 11.3008 6.23828 12.1035 5.93359L12.1094 5.95703C12.2891 6.75195 12.3965 7.58789 12.4277 8.45312H9.54688ZM8.45312 9.54688V11.5176C7.55859 11.5723 6.69922 11.7617 5.89648 12.0664L5.89062 12.043C5.71094 11.248 5.60352 10.4121 5.57227 9.54688H8.45312ZM5.57227 8.45312C5.60352 7.58984 5.71094 6.75195 5.89062 5.95703L5.89648 5.93359C6.69922 6.23828 7.55664 6.42773 8.45312 6.48242V8.45312H5.57227ZM8.45312 12.6133V16.2344C8.27344 16.1621 8.0918 16.0566 7.91211 15.9141C7.49805 15.5879 7.09766 15.0801 6.75781 14.4473C6.54297 14.0449 6.35352 13.6016 6.19141 13.123C6.91797 12.8379 7.67383 12.668 8.45312 12.6133ZM8.45312 5.38672C7.67814 5.33265 6.91603 5.16007 6.19336 4.875C6.35547 4.39453 6.54297 3.95117 6.75977 3.55078C7.09961 2.91797 7.49805 2.41016 7.91406 2.08398C8.09375 1.94336 8.27344 1.83594 8.45508 1.76367V5.38672H8.45312ZM6.14258 2.23242C6.21484 2.20312 6.28516 2.17383 6.35742 2.14648C5.90039 2.75781 5.50781 3.52148 5.20117 4.40039C4.79102 4.16602 4.40234 3.89258 4.04102 3.58398C4.66211 3.01367 5.36719 2.56055 6.14258 2.23242ZM2.23242 6.14258C2.50195 5.50586 2.85742 4.91602 3.29102 4.38086C3.77734 4.80078 4.31055 5.16797 4.88281 5.47266C4.65625 6.38867 4.51562 7.39453 4.47852 8.45312H1.67578C1.73438 7.6543 1.92188 6.87891 2.23242 6.14258ZM1.67578 9.54688H4.47852C4.51562 10.6055 4.65625 11.6113 4.88281 12.5273C4.31324 12.8309 3.77934 13.1971 3.29102 13.6191C2.3485 12.459 1.7847 11.0376 1.67578 9.54688ZM6.14258 15.7676C5.36719 15.4395 4.66211 14.9863 4.04102 14.416C4.40234 14.1074 4.79102 13.8359 5.20117 13.5996C5.50781 14.4785 5.90039 15.2422 6.35742 15.8535C6.28516 15.8262 6.21289 15.7969 6.14258 15.7676ZM11.8574 15.7676C11.7852 15.7969 11.7148 15.8262 11.6426 15.8535C12.0996 15.2422 12.4922 14.4785 12.7988 13.5996C13.209 13.834 13.5977 14.1074 13.959 14.416C13.3413 14.984 12.6304 15.4412 11.8574 15.7676Z" fill="#323752"/>
</symbol><symbol id="search-dropdown" viewBox="0 0 14 14">
<path d="M13.2125 12.3516L9.15469 8.29375C9.78438 7.47969 10.125 6.48438 10.125 5.4375C10.125 4.18438 9.63594 3.00937 8.75156 2.12344C7.86719 1.2375 6.68906 0.75 5.4375 0.75C4.18594 0.75 3.00781 1.23906 2.12344 2.12344C1.2375 3.00781 0.75 4.18438 0.75 5.4375C0.75 6.68906 1.23906 7.86719 2.12344 8.75156C3.00781 9.6375 4.18438 10.125 5.4375 10.125C6.48438 10.125 7.47813 9.78438 8.29219 9.15625L12.35 13.2125C12.3619 13.2244 12.376 13.2338 12.3916 13.2403C12.4071 13.2467 12.4238 13.2501 12.4406 13.2501C12.4575 13.2501 12.4741 13.2467 12.4897 13.2403C12.5052 13.2338 12.5194 13.2244 12.5312 13.2125L13.2125 12.5328C13.2244 12.5209 13.2338 12.5068 13.2403 12.4912C13.2467 12.4757 13.2501 12.459 13.2501 12.4422C13.2501 12.4254 13.2467 12.4087 13.2403 12.3931C13.2338 12.3776 13.2244 12.3635 13.2125 12.3516ZM7.9125 7.9125C7.25 8.57344 6.37187 8.9375 5.4375 8.9375C4.50312 8.9375 3.625 8.57344 2.9625 7.9125C2.30156 7.25 1.9375 6.37187 1.9375 5.4375C1.9375 4.50312 2.30156 3.62344 2.9625 2.9625C3.625 2.30156 4.50312 1.9375 5.4375 1.9375C6.37187 1.9375 7.25156 2.3 7.9125 2.9625C8.57344 3.625 8.9375 4.50312 8.9375 5.4375C8.9375 6.37187 8.57344 7.25156 7.9125 7.9125Z" fill="#8C8C8C"/>
</symbol><symbol id="search" viewBox="0 0 17 16">
<path d="M16.2656 14.6895L11.1934 9.61719C11.9805 8.59961 12.4062 7.35547 12.4062 6.04688C12.4062 4.48047 11.7949 3.01172 10.6895 1.9043C9.58398 0.796875 8.11133 0.1875 6.54688 0.1875C4.98242 0.1875 3.50977 0.798828 2.4043 1.9043C1.29687 3.00977 0.6875 4.48047 0.6875 6.04688C0.6875 7.61133 1.29883 9.08398 2.4043 10.1895C3.50977 11.2969 4.98047 11.9062 6.54688 11.9062C7.85547 11.9062 9.09766 11.4805 10.1152 10.6953L15.1875 15.7656C15.2024 15.7805 15.22 15.7923 15.2395 15.8004C15.2589 15.8084 15.2797 15.8126 15.3008 15.8126C15.3218 15.8126 15.3427 15.8084 15.3621 15.8004C15.3815 15.7923 15.3992 15.7805 15.4141 15.7656L16.2656 14.916C16.2805 14.9011 16.2923 14.8835 16.3004 14.864C16.3084 14.8446 16.3126 14.8238 16.3126 14.8027C16.3126 14.7817 16.3084 14.7609 16.3004 14.7414C16.2923 14.722 16.2805 14.7043 16.2656 14.6895ZM9.64062 9.14062C8.8125 9.9668 7.71484 10.4219 6.54688 10.4219C5.37891 10.4219 4.28125 9.9668 3.45312 9.14062C2.62695 8.3125 2.17188 7.21484 2.17188 6.04688C2.17188 4.87891 2.62695 3.7793 3.45312 2.95312C4.28125 2.12695 5.37891 1.67188 6.54688 1.67188C7.71484 1.67188 8.81445 2.125 9.64062 2.95312C10.4668 3.78125 10.9219 4.87891 10.9219 6.04688C10.9219 7.21484 10.4668 8.31445 9.64062 9.14062Z" fill="white"/>
</symbol><symbol id="year-selected" viewBox="0 0 20 20">
<path d="M10 20C4.477 20 0 15.523 0 10C0 4.477 4.477 0 10 0C15.523 0 20 4.477 20 10C20 15.523 15.523 20 10 20ZM10 18C12.1217 18 14.1566 17.1571 15.6569 15.6569C17.1571 14.1566 18 12.1217 18 10C18 7.87827 17.1571 5.84344 15.6569 4.34315C14.1566 2.84285 12.1217 2 10 2C7.87827 2 5.84344 2.84285 4.34315 4.34315C2.84285 5.84344 2 7.87827 2 10C2 12.1217 2.84285 14.1566 4.34315 15.6569C5.84344 17.1571 7.87827 18 10 18ZM11 10H15V12H9V5H11V10Z" fill="#323752"/>
</symbol><symbol id="year-violet" viewBox="0 0 20 20">
<path d="M10 20C4.477 20 0 15.523 0 10C0 4.477 4.477 0 10 0C15.523 0 20 4.477 20 10C20 15.523 15.523 20 10 20ZM10 18C12.1217 18 14.1566 17.1571 15.6569 15.6569C17.1571 14.1566 18 12.1217 18 10C18 7.87827 17.1571 5.84344 15.6569 4.34315C14.1566 2.84285 12.1217 2 10 2C7.87827 2 5.84344 2.84285 4.34315 4.34315C2.84285 5.84344 2 7.87827 2 10C2 12.1217 2.84285 14.1566 4.34315 15.6569C5.84344 17.1571 7.87827 18 10 18ZM11 10H15V12H9V5H11V10Z" fill="#7F5BD5"/>
</symbol><symbol id="year" viewBox="0 0 20 20">
<path d="M10 20C4.477 20 0 15.523 0 10C0 4.477 4.477 0 10 0C15.523 0 20 4.477 20 10C20 15.523 15.523 20 10 20ZM10 18C12.1217 18 14.1566 17.1571 15.6569 15.6569C17.1571 14.1566 18 12.1217 18 10C18 7.87827 17.1571 5.84344 15.6569 4.34315C14.1566 2.84285 12.1217 2 10 2C7.87827 2 5.84344 2.84285 4.34315 4.34315C2.84285 5.84344 2 7.87827 2 10C2 12.1217 2.84285 14.1566 4.34315 15.6569C5.84344 17.1571 7.87827 18 10 18ZM11 10H15V12H9V5H11V10Z" fill="#7E83A3"/>
</symbol></svg>